# xmcd
#
# Track frame offsets:
#	150
#	3885
#	7402
#	23865
#	39625
#	51695
#	59830
#	90122
#
# Disc length: 2526 seconds
#
# Revision: 3
# Processed by: cddbd v1.5.2PL0 Copyright (c) Steve Scherf et al.
# Submitted via: audiograbber 1.82.02
#
DISCID=6609dc08
DTITLE=X-Ecutioners - Built From Scratch [CD Sampler)
DYEAR=2002
DGENRE=Hip-Hop
TTITLE0=Intro
TTITLE1=Ready To Roll
TTITLE2=Y'all Know The Name (feat. Pharoahe Monch, Xzibit, Inspectah Deck and Ski
TTITLE2=llz)
TTITLE3=Let It Bang (feat. M.O.P)
TTITLE4=XL (feat. Large Professor)
TTITLE5=It's Goin DOwn (feat. DJ Hahn and Mike Chinoda of Linkin Park)
TTITLE6=X-Ecutioners Scratch
TTITLE7=Data Track
EXTD=Sampler CD
EXTT0=
EXTT1=
EXTT2=
EXTT3=
EXTT4=
EXTT5=
EXTT6=
EXTT7=
PLAYORDER=
